<svg xmlns="http://www.w3.org/2000/svg" width="960" height="276" viewBox="0 0 960 276" role="img"><title>GitHub public repository snapshot</title><desc>7 public repositories. TypeScript: 2, JavaScript: 1, TeX: 1, Unclassified: 3. Updated 2026-09-09.</desc><rect x=".5" y=".5" width="959" height="275" rx="22" fill="#0B1220" stroke="#263952"/><text x="36" y="43" font-family="Segoe UI, Arial, sans-serif" font-size="17" font-weight="600" fill="#A6B6CC" letter-spacing="2">PUBLIC CODE</text><text x="36" y="134" font-family="Segoe UI, Arial, sans-serif" font-size="84" font-weight="700" fill="#F1F6FF" >7</text><text x="36" y="172" font-family="Segoe UI, Arial, sans-serif" font-size="22" font-weight="600" fill="#F1F6FF" >public repositories</text><path d="M294 36V208" stroke="#263952"/><text x="330" y="49" font-family="Segoe UI, Arial, sans-serif" font-size="21" font-weight="400" fill="#A6B6CC" >Repositories by primary language</text><defs><clipPath id="bar"><rect x="330" y="80" width="594" height="22" rx="8"/></clipPath></defs><rect x="330" y="80" width="594" height="22" rx="8" fill="#263952"/><rect x="330.00" y="80" width="169.71" height="22" fill="#5EA3EB" clip-path="url(#bar)"/><circle cx="335" cy="140" r="5" fill="#5EA3EB"/><text x="350" y="147" font-family="Segoe UI, Arial, sans-serif" font-size="19" font-weight="400" fill="#F1F6FF" >TypeScript · 2</text><rect x="499.71" y="80" width="84.86" height="22" fill="#E3BF52" clip-path="url(#bar)"/><circle cx="637" cy="140" r="5" fill="#E3BF52"/><text x="652" y="147" font-family="Segoe UI, Arial, sans-serif" font-size="19" font-weight="400" fill="#F1F6FF" >JavaScript · 1</text><rect x="584.57" y="80" width="84.86" height="22" fill="#83B994" clip-path="url(#bar)"/><circle cx="335" cy="179" r="5" fill="#83B994"/><text x="350" y="186" font-family="Segoe UI, Arial, sans-serif" font-size="19" font-weight="400" fill="#F1F6FF" >TeX · 1</text><rect x="669.43" y="80" width="254.57" height="22" fill="#8593AA" clip-path="url(#bar)"/><circle cx="637" cy="179" r="5" fill="#8593AA"/><text x="652" y="186" font-family="Segoe UI, Arial, sans-serif" font-size="19" font-weight="400" fill="#F1F6FF" >Unclassified · 3</text><text x="36" y="246" font-family="Segoe UI, Arial, sans-serif" font-size="16" font-weight="400" fill="#A6B6CC" >Snapshot · 2026-09-09 UTC · Public repository metadata</text></svg>
