<svg xmlns="http://www.w3.org/2000/svg" width="1200" height="480" viewBox="0 0 1200 480" role="img"><title>Mallesh. Thoughtful APIs. Reliable systems. Full stack developer with a backend focus.</title><defs>
      <linearGradient id="brand" x1="0" x2="1" y1="0" y2="1"><stop stop-color="#00788C"/><stop offset="1" stop-color="#7151CE"/></linearGradient>
      <radialGradient id="glow"><stop stop-color="#DDF3FC"/><stop offset="1" stop-color="#F4F8FF"/></radialGradient>
      <pattern id="grid" width="36" height="36" patternUnits="userSpaceOnUse"><path d="M36 0H0V36" fill="none" stroke="#D1DEF0" stroke-width="0.6"/></pattern>
      <clipPath id="clip"><rect width="1200" height="480" rx="26"/></clipPath>
    </defs>
    <g clip-path="url(#clip)">
      <rect width="1200" height="480" fill="#F4F8FF"/>
      <ellipse cx="1140" cy="240" rx="450" ry="420" fill="url(#glow)"/>
      <rect x="600" width="600" height="480" fill="url(#grid)" opacity="0.52"/>
      <path d="M1 1H1199" stroke="url(#brand)" stroke-width="4"/>
    <text x="56" y="61" fill="#00788C" font-family="Segoe UI, Arial, sans-serif" font-size="18" font-weight="700" letter-spacing="3">M / 002</text><text x="56" y="186" fill="#14233B" font-family="Segoe UI, Arial, sans-serif" font-size="116" font-weight="700" letter-spacing="-5">Mallesh.</text><text x="60" y="260" fill="#14233B" font-family="Segoe UI, Arial, sans-serif" font-size="43" font-weight="600" letter-spacing="-1">Thoughtful APIs.</text><text x="60" y="313" fill="#14233B" font-family="Segoe UI, Arial, sans-serif" font-size="43" font-weight="600" letter-spacing="-1">Reliable systems.</text><text x="60" y="365" fill="#4D617E" font-family="Segoe UI, Arial, sans-serif" font-size="23" font-weight="400" >Full stack developer · Backend focus</text><g transform="translate(810 62) scale(1.02)">
      <circle cx="150" cy="150" r="144" fill="none" stroke="#D1DEF0"/>
      <circle cx="150" cy="150" r="118" fill="none" stroke="#D1DEF0" stroke-dasharray="2 12"/>
      <path d="M6 150H47 M253 150H294 M150 6V47 M150 253V294" stroke="#00788C" stroke-width="2"/>
      <rect x="54" y="54" width="192" height="192" rx="38" fill="#FFFFFF" stroke="#D1DEF0" transform="rotate(-12 150 150)"/>
      <rect x="54" y="54" width="192" height="192" rx="38" fill="#FFFFFF" stroke="#D1DEF0" transform="rotate(8 150 150)"/>
      <path d="M88 205V100L150 172L212 100V205" fill="none" stroke="#7151CE" stroke-width="18" stroke-linecap="round" stroke-linejoin="round" opacity="0.2" transform="translate(5 7)"/>
      <path d="M88 198V93L150 165L212 93V198" fill="none" stroke="url(#brand)" stroke-width="18" stroke-linecap="round" stroke-linejoin="round"/>
      <circle cx="274" cy="78" r="6" fill="#00788C"/>
      <circle cx="35" cy="233" r="5" fill="#7151CE"/>
    </g><path d="M60 409H1140" stroke="#D1DEF0"/><text x="60" y="447" fill="#00788C" font-family="Segoe UI, Arial, sans-serif" font-size="17" font-weight="600" letter-spacing="2">APIs  /  DATA  /  AI</text><text x="1140" y="447" fill="#4D617E" font-family="Segoe UI, Arial, sans-serif" font-size="17" font-weight="400" text-anchor="end">github.com/mallesh002</text></g><rect x=".5" y=".5" width="1199" height="479" rx="26" fill="none" stroke="#D1DEF0"/></svg>
